<mxfile host="app.diagrams.net" modified="2024-05-14T06:55:12.506Z" agent="Mozilla/5.0 (Windows NT 10.0; Win64; x64) AppleWebKit/537.36 (KHTML, like Gecko) Chrome/124.0.0.0 Safari/537.36" etag="b3y8xx_4O37Mlu6wBH5t" version="24.4.0" type="github">
  <diagram id="C5RBs43oDa-KdzZeNtuy" name="Page-1">
    <mxGraphModel dx="989" dy="572" grid="1" gridSize="10" guides="1" tooltips="1" connect="1" arrows="1" fold="1" page="1" pageScale="1" pageWidth="827" pageHeight="1169" math="0" shadow="0">
      <root>
        <mxCell id="WIyWlLk6GJQsqaUBKTNV-0" />
        <mxCell id="WIyWlLk6GJQsqaUBKTNV-1" parent="WIyWlLk6GJQsqaUBKTNV-0" />
        <mxCell id="WIyWlLk6GJQsqaUBKTNV-2" value="" style="rounded=0;html=1;jettySize=auto;orthogonalLoop=1;fontSize=11;endArrow=block;endFill=0;endSize=8;strokeWidth=1;shadow=0;labelBackgroundColor=none;edgeStyle=orthogonalEdgeStyle;" parent="WIyWlLk6GJQsqaUBKTNV-1" source="WIyWlLk6GJQsqaUBKTNV-3" edge="1">
          <mxGeometry relative="1" as="geometry">
            <mxPoint x="220" y="110" as="targetPoint" />
          </mxGeometry>
        </mxCell>
        <mxCell id="WIyWlLk6GJQsqaUBKTNV-3" value="NH_CLICK START" style="rounded=1;whiteSpace=wrap;html=1;fontSize=12;glass=0;strokeWidth=1;shadow=0;" parent="WIyWlLk6GJQsqaUBKTNV-1" vertex="1">
          <mxGeometry x="160" y="30" width="120" height="40" as="geometry" />
        </mxCell>
        <mxCell id="WIyWlLk6GJQsqaUBKTNV-4" value="Yes" style="rounded=0;html=1;jettySize=auto;orthogonalLoop=1;fontSize=11;endArrow=block;endFill=0;endSize=8;strokeWidth=1;shadow=0;labelBackgroundColor=none;edgeStyle=orthogonalEdgeStyle;" parent="WIyWlLk6GJQsqaUBKTNV-1" source="WIyWlLk6GJQsqaUBKTNV-6" edge="1">
          <mxGeometry x="-0.6667" y="20" relative="1" as="geometry">
            <mxPoint as="offset" />
            <mxPoint x="220" y="290" as="targetPoint" />
          </mxGeometry>
        </mxCell>
        <mxCell id="WIyWlLk6GJQsqaUBKTNV-5" value="No" style="edgeStyle=orthogonalEdgeStyle;rounded=0;html=1;jettySize=auto;orthogonalLoop=1;fontSize=11;endArrow=block;endFill=0;endSize=8;strokeWidth=1;shadow=0;labelBackgroundColor=none;exitX=1;exitY=0.5;exitDx=0;exitDy=0;" parent="WIyWlLk6GJQsqaUBKTNV-1" source="WIyWlLk6GJQsqaUBKTNV-6" edge="1">
          <mxGeometry x="-0.2222" y="-10" relative="1" as="geometry">
            <mxPoint as="offset" />
            <mxPoint x="220" y="160" as="targetPoint" />
            <Array as="points">
              <mxPoint x="310" y="200" />
              <mxPoint x="310" y="160" />
            </Array>
          </mxGeometry>
        </mxCell>
        <mxCell id="WIyWlLk6GJQsqaUBKTNV-6" value="시간이 됐는가?" style="rhombus;whiteSpace=wrap;html=1;shadow=0;fontFamily=Helvetica;fontSize=12;align=center;strokeWidth=1;spacing=6;spacingTop=-4;" parent="WIyWlLk6GJQsqaUBKTNV-1" vertex="1">
          <mxGeometry x="170" y="170" width="100" height="60" as="geometry" />
        </mxCell>
        <mxCell id="WIyWlLk6GJQsqaUBKTNV-11" value="click_&#39;8655&#39;,&#39;8733&#39;" style="rounded=1;whiteSpace=wrap;html=1;fontSize=12;glass=0;strokeWidth=1;shadow=0;" parent="WIyWlLk6GJQsqaUBKTNV-1" vertex="1">
          <mxGeometry x="160" y="430" width="120" height="40" as="geometry" />
        </mxCell>
        <mxCell id="zAL7B_6-Cuwp_U3W41ha-2" value="Yes" style="rounded=0;html=1;jettySize=auto;orthogonalLoop=1;fontSize=11;endArrow=block;endFill=0;endSize=8;strokeWidth=1;shadow=0;labelBackgroundColor=none;edgeStyle=orthogonalEdgeStyle;entryX=0;entryY=0.5;entryDx=0;entryDy=0;exitX=1;exitY=0.5;exitDx=0;exitDy=0;" edge="1" parent="WIyWlLk6GJQsqaUBKTNV-1" source="WIyWlLk6GJQsqaUBKTNV-11" target="zAL7B_6-Cuwp_U3W41ha-22">
          <mxGeometry x="0.3333" y="20" relative="1" as="geometry">
            <mxPoint as="offset" />
            <mxPoint x="219.71" y="470" as="sourcePoint" />
            <mxPoint x="220" y="500" as="targetPoint" />
          </mxGeometry>
        </mxCell>
        <mxCell id="zAL7B_6-Cuwp_U3W41ha-3" value="DRAG_WINDOW" style="rounded=1;whiteSpace=wrap;html=1;fontSize=12;glass=0;strokeWidth=1;shadow=0;" vertex="1" parent="WIyWlLk6GJQsqaUBKTNV-1">
          <mxGeometry x="160" y="510" width="120" height="40" as="geometry" />
        </mxCell>
        <mxCell id="zAL7B_6-Cuwp_U3W41ha-5" value="1. 동시접속확인" style="rounded=1;whiteSpace=wrap;html=1;fontSize=12;glass=0;strokeWidth=1;shadow=0;" vertex="1" parent="WIyWlLk6GJQsqaUBKTNV-1">
          <mxGeometry x="480" y="510" width="120" height="40" as="geometry" />
        </mxCell>
        <mxCell id="zAL7B_6-Cuwp_U3W41ha-6" value="FIND_BALANCE&lt;div&gt;1.이미지클릭&lt;/div&gt;" style="rounded=1;whiteSpace=wrap;html=1;fontSize=12;glass=0;strokeWidth=1;shadow=0;" vertex="1" parent="WIyWlLk6GJQsqaUBKTNV-1">
          <mxGeometry x="160" y="590" width="120" height="40" as="geometry" />
        </mxCell>
        <mxCell id="zAL7B_6-Cuwp_U3W41ha-7" value="Yes" style="rounded=0;html=1;jettySize=auto;orthogonalLoop=1;fontSize=11;endArrow=block;endFill=0;endSize=8;strokeWidth=1;shadow=0;labelBackgroundColor=none;edgeStyle=orthogonalEdgeStyle;entryX=0;entryY=0.5;entryDx=0;entryDy=0;" edge="1" parent="WIyWlLk6GJQsqaUBKTNV-1" target="zAL7B_6-Cuwp_U3W41ha-28">
          <mxGeometry x="0.3333" y="20" relative="1" as="geometry">
            <mxPoint as="offset" />
            <mxPoint x="280" y="530" as="sourcePoint" />
            <mxPoint x="219.71" y="610" as="targetPoint" />
          </mxGeometry>
        </mxCell>
        <mxCell id="zAL7B_6-Cuwp_U3W41ha-10" value="Yes" style="rounded=0;html=1;jettySize=auto;orthogonalLoop=1;fontSize=11;endArrow=block;endFill=0;endSize=8;strokeWidth=1;shadow=0;labelBackgroundColor=none;edgeStyle=orthogonalEdgeStyle;entryX=0.028;entryY=0.48;entryDx=0;entryDy=0;exitX=1;exitY=0.5;exitDx=0;exitDy=0;entryPerimeter=0;" edge="1" parent="WIyWlLk6GJQsqaUBKTNV-1" source="zAL7B_6-Cuwp_U3W41ha-6" target="zAL7B_6-Cuwp_U3W41ha-31">
          <mxGeometry x="0.3333" y="20" relative="1" as="geometry">
            <mxPoint as="offset" />
            <mxPoint x="219.71" y="630" as="sourcePoint" />
            <mxPoint x="219.71" y="690" as="targetPoint" />
          </mxGeometry>
        </mxCell>
        <mxCell id="zAL7B_6-Cuwp_U3W41ha-11" value="FIND_BALANCE&lt;div&gt;2.이미지저장&lt;/div&gt;" style="rounded=1;whiteSpace=wrap;html=1;fontSize=12;glass=0;strokeWidth=1;shadow=0;" vertex="1" parent="WIyWlLk6GJQsqaUBKTNV-1">
          <mxGeometry x="160" y="670" width="120" height="40" as="geometry" />
        </mxCell>
        <mxCell id="zAL7B_6-Cuwp_U3W41ha-12" value="" style="rounded=0;html=1;jettySize=auto;orthogonalLoop=1;fontSize=11;endArrow=block;endFill=0;endSize=8;strokeWidth=1;shadow=0;labelBackgroundColor=none;edgeStyle=orthogonalEdgeStyle;entryX=0;entryY=0.5;entryDx=0;entryDy=0;" edge="1" parent="WIyWlLk6GJQsqaUBKTNV-1" target="zAL7B_6-Cuwp_U3W41ha-40">
          <mxGeometry x="0.3333" y="20" relative="1" as="geometry">
            <mxPoint as="offset" />
            <mxPoint x="280" y="690" as="sourcePoint" />
            <mxPoint x="219.71" y="770" as="targetPoint" />
          </mxGeometry>
        </mxCell>
        <mxCell id="zAL7B_6-Cuwp_U3W41ha-13" value="결과 값 텔레그램 전송" style="rounded=1;whiteSpace=wrap;html=1;fontSize=12;glass=0;strokeWidth=1;shadow=0;" vertex="1" parent="WIyWlLk6GJQsqaUBKTNV-1">
          <mxGeometry x="160" y="750" width="120" height="40" as="geometry" />
        </mxCell>
        <mxCell id="zAL7B_6-Cuwp_U3W41ha-15" value="Yes" style="edgeStyle=orthogonalEdgeStyle;rounded=0;html=1;jettySize=auto;orthogonalLoop=1;fontSize=11;endArrow=block;endFill=0;endSize=8;strokeWidth=1;shadow=0;labelBackgroundColor=none;entryX=0;entryY=0.5;entryDx=0;entryDy=0;exitX=0.946;exitY=0.49;exitDx=0;exitDy=0;exitPerimeter=0;" edge="1" parent="WIyWlLk6GJQsqaUBKTNV-1" source="zAL7B_6-Cuwp_U3W41ha-56" target="zAL7B_6-Cuwp_U3W41ha-34">
          <mxGeometry x="-0.7831" y="-10" relative="1" as="geometry">
            <mxPoint as="offset" />
            <mxPoint x="280" y="769.71" as="sourcePoint" />
            <mxPoint x="330" y="769.71" as="targetPoint" />
            <Array as="points">
              <mxPoint x="393" y="771" />
              <mxPoint x="396" y="771" />
              <mxPoint x="396" y="770" />
              <mxPoint x="460" y="770" />
              <mxPoint x="460" y="590" />
            </Array>
          </mxGeometry>
        </mxCell>
        <mxCell id="zAL7B_6-Cuwp_U3W41ha-16" value="" style="rounded=0;html=1;jettySize=auto;orthogonalLoop=1;fontSize=11;endArrow=block;endFill=0;endSize=8;strokeWidth=1;shadow=0;labelBackgroundColor=none;edgeStyle=orthogonalEdgeStyle;entryX=0;entryY=0.5;entryDx=0;entryDy=0;" edge="1" parent="WIyWlLk6GJQsqaUBKTNV-1" target="zAL7B_6-Cuwp_U3W41ha-56">
          <mxGeometry x="0.3333" y="20" relative="1" as="geometry">
            <mxPoint as="offset" />
            <mxPoint x="280" y="770" as="sourcePoint" />
            <mxPoint x="219.71" y="850" as="targetPoint" />
          </mxGeometry>
        </mxCell>
        <mxCell id="zAL7B_6-Cuwp_U3W41ha-17" value="CLICK8733&amp;amp;&lt;div&gt;WRITE PASSWORD&lt;/div&gt;" style="rounded=1;whiteSpace=wrap;html=1;fontSize=12;glass=0;strokeWidth=1;shadow=0;" vertex="1" parent="WIyWlLk6GJQsqaUBKTNV-1">
          <mxGeometry x="160" y="850" width="120" height="40" as="geometry" />
        </mxCell>
        <mxCell id="zAL7B_6-Cuwp_U3W41ha-18" value="" style="edgeStyle=orthogonalEdgeStyle;rounded=0;html=1;jettySize=auto;orthogonalLoop=1;fontSize=11;endArrow=block;endFill=0;endSize=8;strokeWidth=1;shadow=0;labelBackgroundColor=none;entryX=0;entryY=0.5;entryDx=0;entryDy=0;" edge="1" parent="WIyWlLk6GJQsqaUBKTNV-1" target="zAL7B_6-Cuwp_U3W41ha-59">
          <mxGeometry y="10" relative="1" as="geometry">
            <mxPoint as="offset" />
            <mxPoint x="280" y="869.71" as="sourcePoint" />
            <mxPoint x="330" y="869.71" as="targetPoint" />
          </mxGeometry>
        </mxCell>
        <mxCell id="zAL7B_6-Cuwp_U3W41ha-21" value="미체결사유 전송" style="rounded=1;whiteSpace=wrap;html=1;fontSize=12;glass=0;strokeWidth=1;shadow=0;" vertex="1" parent="WIyWlLk6GJQsqaUBKTNV-1">
          <mxGeometry x="160" y="950" width="120" height="40" as="geometry" />
        </mxCell>
        <mxCell id="zAL7B_6-Cuwp_U3W41ha-22" value="error?" style="rhombus;whiteSpace=wrap;html=1;shadow=0;fontFamily=Helvetica;fontSize=12;align=center;strokeWidth=1;spacing=6;spacingTop=-4;" vertex="1" parent="WIyWlLk6GJQsqaUBKTNV-1">
          <mxGeometry x="300" y="430" width="100" height="40" as="geometry" />
        </mxCell>
        <mxCell id="zAL7B_6-Cuwp_U3W41ha-23" value="No" style="rounded=0;html=1;jettySize=auto;orthogonalLoop=1;fontSize=11;endArrow=block;endFill=0;endSize=8;strokeWidth=1;shadow=0;labelBackgroundColor=none;edgeStyle=orthogonalEdgeStyle;exitX=0.5;exitY=1;exitDx=0;exitDy=0;entryX=0.5;entryY=0;entryDx=0;entryDy=0;" edge="1" parent="WIyWlLk6GJQsqaUBKTNV-1" source="zAL7B_6-Cuwp_U3W41ha-22" target="zAL7B_6-Cuwp_U3W41ha-3">
          <mxGeometry x="-0.4118" y="-10" relative="1" as="geometry">
            <mxPoint as="offset" />
            <mxPoint x="219.8" y="585" as="sourcePoint" />
            <mxPoint x="220" y="580" as="targetPoint" />
            <Array as="points" />
          </mxGeometry>
        </mxCell>
        <mxCell id="zAL7B_6-Cuwp_U3W41ha-25" style="edgeStyle=none;curved=1;rounded=0;orthogonalLoop=1;jettySize=auto;html=1;entryX=0.5;entryY=0;entryDx=0;entryDy=0;fontSize=12;startSize=8;endSize=8;" edge="1" parent="WIyWlLk6GJQsqaUBKTNV-1" source="zAL7B_6-Cuwp_U3W41ha-3" target="zAL7B_6-Cuwp_U3W41ha-3">
          <mxGeometry relative="1" as="geometry" />
        </mxCell>
        <mxCell id="zAL7B_6-Cuwp_U3W41ha-27" value="Yes" style="rounded=0;html=1;jettySize=auto;orthogonalLoop=1;fontSize=11;endArrow=block;endFill=0;endSize=8;strokeWidth=1;shadow=0;labelBackgroundColor=none;edgeStyle=orthogonalEdgeStyle;exitX=1;exitY=0.5;exitDx=0;exitDy=0;entryX=0;entryY=0.5;entryDx=0;entryDy=0;" edge="1" parent="WIyWlLk6GJQsqaUBKTNV-1" source="zAL7B_6-Cuwp_U3W41ha-22" target="zAL7B_6-Cuwp_U3W41ha-5">
          <mxGeometry x="0.5" y="-92" relative="1" as="geometry">
            <mxPoint x="-20" y="-2" as="offset" />
            <mxPoint x="310" y="510" as="sourcePoint" />
            <mxPoint x="310.29" y="540" as="targetPoint" />
          </mxGeometry>
        </mxCell>
        <mxCell id="zAL7B_6-Cuwp_U3W41ha-28" value="error?" style="rhombus;whiteSpace=wrap;html=1;shadow=0;fontFamily=Helvetica;fontSize=12;align=center;strokeWidth=1;spacing=6;spacingTop=-4;" vertex="1" parent="WIyWlLk6GJQsqaUBKTNV-1">
          <mxGeometry x="299.48" y="510" width="100" height="40" as="geometry" />
        </mxCell>
        <mxCell id="zAL7B_6-Cuwp_U3W41ha-29" value="No" style="rounded=0;html=1;jettySize=auto;orthogonalLoop=1;fontSize=11;endArrow=block;endFill=0;endSize=8;strokeWidth=1;shadow=0;labelBackgroundColor=none;edgeStyle=orthogonalEdgeStyle;exitX=0.5;exitY=1;exitDx=0;exitDy=0;entryX=0.5;entryY=0;entryDx=0;entryDy=0;" edge="1" source="zAL7B_6-Cuwp_U3W41ha-28" parent="WIyWlLk6GJQsqaUBKTNV-1">
          <mxGeometry x="-0.4118" y="-10" relative="1" as="geometry">
            <mxPoint as="offset" />
            <mxPoint x="219.28" y="665" as="sourcePoint" />
            <mxPoint x="219.48" y="590" as="targetPoint" />
            <Array as="points" />
          </mxGeometry>
        </mxCell>
        <mxCell id="zAL7B_6-Cuwp_U3W41ha-30" value="Yes" style="rounded=0;html=1;jettySize=auto;orthogonalLoop=1;fontSize=11;endArrow=block;endFill=0;endSize=8;strokeWidth=1;shadow=0;labelBackgroundColor=none;edgeStyle=orthogonalEdgeStyle;exitX=1;exitY=0.5;exitDx=0;exitDy=0;entryX=0;entryY=0.5;entryDx=0;entryDy=0;" edge="1" source="zAL7B_6-Cuwp_U3W41ha-28" parent="WIyWlLk6GJQsqaUBKTNV-1" target="zAL7B_6-Cuwp_U3W41ha-5">
          <mxGeometry x="-0.7387" y="70" relative="1" as="geometry">
            <mxPoint as="offset" />
            <mxPoint x="309.48" y="590" as="sourcePoint" />
            <mxPoint x="479" y="550" as="targetPoint" />
          </mxGeometry>
        </mxCell>
        <mxCell id="zAL7B_6-Cuwp_U3W41ha-31" value="error?" style="rhombus;whiteSpace=wrap;html=1;shadow=0;fontFamily=Helvetica;fontSize=12;align=center;strokeWidth=1;spacing=6;spacingTop=-4;" vertex="1" parent="WIyWlLk6GJQsqaUBKTNV-1">
          <mxGeometry x="299.22" y="590" width="100" height="40" as="geometry" />
        </mxCell>
        <mxCell id="zAL7B_6-Cuwp_U3W41ha-32" value="Yes" style="rounded=0;html=1;jettySize=auto;orthogonalLoop=1;fontSize=11;endArrow=block;endFill=0;endSize=8;strokeWidth=1;shadow=0;labelBackgroundColor=none;edgeStyle=orthogonalEdgeStyle;exitX=1;exitY=0.5;exitDx=0;exitDy=0;entryX=0;entryY=0.5;entryDx=0;entryDy=0;" edge="1" source="zAL7B_6-Cuwp_U3W41ha-31" parent="WIyWlLk6GJQsqaUBKTNV-1" target="zAL7B_6-Cuwp_U3W41ha-5">
          <mxGeometry x="0.3333" y="20" relative="1" as="geometry">
            <mxPoint as="offset" />
            <mxPoint x="309.22" y="670" as="sourcePoint" />
            <mxPoint x="479.22" y="710" as="targetPoint" />
          </mxGeometry>
        </mxCell>
        <mxCell id="zAL7B_6-Cuwp_U3W41ha-33" value="No" style="rounded=0;html=1;jettySize=auto;orthogonalLoop=1;fontSize=11;endArrow=block;endFill=0;endSize=8;strokeWidth=1;shadow=0;labelBackgroundColor=none;edgeStyle=orthogonalEdgeStyle;exitX=0.5;exitY=1;exitDx=0;exitDy=0;entryX=0.5;entryY=0;entryDx=0;entryDy=0;" edge="1" source="zAL7B_6-Cuwp_U3W41ha-31" parent="WIyWlLk6GJQsqaUBKTNV-1">
          <mxGeometry x="-0.4118" y="-10" relative="1" as="geometry">
            <mxPoint as="offset" />
            <mxPoint x="219.02" y="745" as="sourcePoint" />
            <mxPoint x="219.22" y="670" as="targetPoint" />
            <Array as="points" />
          </mxGeometry>
        </mxCell>
        <mxCell id="zAL7B_6-Cuwp_U3W41ha-34" value="&lt;div&gt;2. REPORT ERROR&lt;/div&gt;" style="rounded=1;whiteSpace=wrap;html=1;fontSize=12;glass=0;strokeWidth=1;shadow=0;" vertex="1" parent="WIyWlLk6GJQsqaUBKTNV-1">
          <mxGeometry x="480" y="570" width="120" height="40" as="geometry" />
        </mxCell>
        <mxCell id="zAL7B_6-Cuwp_U3W41ha-36" value="" style="edgeStyle=orthogonalEdgeStyle;rounded=0;html=1;jettySize=auto;orthogonalLoop=1;fontSize=11;endArrow=block;endFill=0;endSize=8;strokeWidth=1;shadow=0;labelBackgroundColor=none;entryX=0.5;entryY=0;entryDx=0;entryDy=0;movable=1;resizable=1;rotatable=1;deletable=1;editable=1;locked=0;connectable=1;exitX=0.5;exitY=1;exitDx=0;exitDy=0;" edge="1" parent="WIyWlLk6GJQsqaUBKTNV-1" source="zAL7B_6-Cuwp_U3W41ha-5" target="zAL7B_6-Cuwp_U3W41ha-34">
          <mxGeometry x="-0.0515" y="-30" relative="1" as="geometry">
            <mxPoint as="offset" />
            <mxPoint x="550" y="360" as="sourcePoint" />
            <mxPoint x="590" y="510" as="targetPoint" />
          </mxGeometry>
        </mxCell>
        <mxCell id="zAL7B_6-Cuwp_U3W41ha-37" value="종료" style="ellipse;whiteSpace=wrap;html=1;" vertex="1" parent="WIyWlLk6GJQsqaUBKTNV-1">
          <mxGeometry x="375" y="1070" width="30" height="20" as="geometry" />
        </mxCell>
        <mxCell id="zAL7B_6-Cuwp_U3W41ha-38" value="" style="edgeStyle=orthogonalEdgeStyle;rounded=0;html=1;jettySize=auto;orthogonalLoop=1;fontSize=11;endArrow=block;endFill=0;endSize=8;strokeWidth=1;shadow=0;labelBackgroundColor=none;exitX=0.5;exitY=1;exitDx=0;exitDy=0;entryX=0.5;entryY=0;entryDx=0;entryDy=0;" edge="1" parent="WIyWlLk6GJQsqaUBKTNV-1" source="zAL7B_6-Cuwp_U3W41ha-21" target="zAL7B_6-Cuwp_U3W41ha-63">
          <mxGeometry y="10" relative="1" as="geometry">
            <mxPoint as="offset" />
            <mxPoint x="220" y="1060" as="sourcePoint" />
            <mxPoint x="340" y="990" as="targetPoint" />
            <Array as="points">
              <mxPoint x="220" y="1020" />
              <mxPoint x="220" y="1020" />
            </Array>
          </mxGeometry>
        </mxCell>
        <mxCell id="zAL7B_6-Cuwp_U3W41ha-39" value="" style="edgeStyle=orthogonalEdgeStyle;rounded=0;html=1;jettySize=auto;orthogonalLoop=1;fontSize=11;endArrow=block;endFill=0;endSize=8;strokeWidth=1;shadow=0;labelBackgroundColor=none;exitX=0.5;exitY=1;exitDx=0;exitDy=0;" edge="1" parent="WIyWlLk6GJQsqaUBKTNV-1" source="zAL7B_6-Cuwp_U3W41ha-34">
          <mxGeometry y="10" relative="1" as="geometry">
            <mxPoint as="offset" />
            <mxPoint x="580" y="690" as="sourcePoint" />
            <mxPoint x="390" y="1070" as="targetPoint" />
            <Array as="points">
              <mxPoint x="540" y="1040" />
              <mxPoint x="390" y="1040" />
            </Array>
          </mxGeometry>
        </mxCell>
        <mxCell id="zAL7B_6-Cuwp_U3W41ha-40" value="error?" style="rhombus;whiteSpace=wrap;html=1;shadow=0;fontFamily=Helvetica;fontSize=12;align=center;strokeWidth=1;spacing=6;spacingTop=-4;" vertex="1" parent="WIyWlLk6GJQsqaUBKTNV-1">
          <mxGeometry x="298.57000000000005" y="670" width="100" height="40" as="geometry" />
        </mxCell>
        <mxCell id="zAL7B_6-Cuwp_U3W41ha-41" value="Yes" style="rounded=0;html=1;jettySize=auto;orthogonalLoop=1;fontSize=11;endArrow=block;endFill=0;endSize=8;strokeWidth=1;shadow=0;labelBackgroundColor=none;edgeStyle=orthogonalEdgeStyle;exitX=1;exitY=0.5;exitDx=0;exitDy=0;entryX=-0.023;entryY=0.45;entryDx=0;entryDy=0;entryPerimeter=0;" edge="1" source="zAL7B_6-Cuwp_U3W41ha-40" parent="WIyWlLk6GJQsqaUBKTNV-1" target="zAL7B_6-Cuwp_U3W41ha-5">
          <mxGeometry x="0.3333" y="20" relative="1" as="geometry">
            <mxPoint as="offset" />
            <mxPoint x="308.57000000000005" y="750" as="sourcePoint" />
            <mxPoint x="479.35" y="610" as="targetPoint" />
            <Array as="points">
              <mxPoint x="440" y="690" />
              <mxPoint x="440" y="530" />
              <mxPoint x="470" y="530" />
              <mxPoint x="470" y="528" />
            </Array>
          </mxGeometry>
        </mxCell>
        <mxCell id="zAL7B_6-Cuwp_U3W41ha-42" value="No" style="rounded=0;html=1;jettySize=auto;orthogonalLoop=1;fontSize=11;endArrow=block;endFill=0;endSize=8;strokeWidth=1;shadow=0;labelBackgroundColor=none;edgeStyle=orthogonalEdgeStyle;exitX=0.5;exitY=1;exitDx=0;exitDy=0;entryX=0.5;entryY=0;entryDx=0;entryDy=0;" edge="1" source="zAL7B_6-Cuwp_U3W41ha-40" parent="WIyWlLk6GJQsqaUBKTNV-1">
          <mxGeometry x="-0.4118" y="-10" relative="1" as="geometry">
            <mxPoint as="offset" />
            <mxPoint x="218.37" y="825" as="sourcePoint" />
            <mxPoint x="218.57" y="750" as="targetPoint" />
            <Array as="points" />
          </mxGeometry>
        </mxCell>
        <mxCell id="zAL7B_6-Cuwp_U3W41ha-43" value="실행할 시간 설정" style="rounded=1;whiteSpace=wrap;html=1;fontSize=12;glass=0;strokeWidth=1;shadow=0;" vertex="1" parent="WIyWlLk6GJQsqaUBKTNV-1">
          <mxGeometry x="160" y="110" width="120" height="40" as="geometry" />
        </mxCell>
        <mxCell id="zAL7B_6-Cuwp_U3W41ha-44" value="" style="rounded=0;html=1;jettySize=auto;orthogonalLoop=1;fontSize=11;endArrow=block;endFill=0;endSize=8;strokeWidth=1;shadow=0;labelBackgroundColor=none;edgeStyle=orthogonalEdgeStyle;exitX=0.5;exitY=1;exitDx=0;exitDy=0;entryX=0.5;entryY=0;entryDx=0;entryDy=0;" edge="1" parent="WIyWlLk6GJQsqaUBKTNV-1" source="zAL7B_6-Cuwp_U3W41ha-43" target="WIyWlLk6GJQsqaUBKTNV-6">
          <mxGeometry relative="1" as="geometry">
            <mxPoint x="230" y="80" as="sourcePoint" />
            <mxPoint x="230" y="120" as="targetPoint" />
          </mxGeometry>
        </mxCell>
        <mxCell id="zAL7B_6-Cuwp_U3W41ha-51" value="error?" style="rhombus;whiteSpace=wrap;html=1;shadow=0;fontFamily=Helvetica;fontSize=12;align=center;strokeWidth=1;spacing=6;spacingTop=-4;" vertex="1" parent="WIyWlLk6GJQsqaUBKTNV-1">
          <mxGeometry x="305" y="290" width="100" height="40" as="geometry" />
        </mxCell>
        <mxCell id="zAL7B_6-Cuwp_U3W41ha-52" value="Yes" style="rounded=0;html=1;jettySize=auto;orthogonalLoop=1;fontSize=11;endArrow=block;endFill=0;endSize=8;strokeWidth=1;shadow=0;labelBackgroundColor=none;edgeStyle=orthogonalEdgeStyle;exitX=1;exitY=0.5;exitDx=0;exitDy=0;entryX=-0.02;entryY=0.51;entryDx=0;entryDy=0;entryPerimeter=0;" edge="1" source="zAL7B_6-Cuwp_U3W41ha-51" parent="WIyWlLk6GJQsqaUBKTNV-1" target="zAL7B_6-Cuwp_U3W41ha-5">
          <mxGeometry x="-0.8976" y="10" relative="1" as="geometry">
            <mxPoint as="offset" />
            <mxPoint x="390" y="360" as="sourcePoint" />
            <mxPoint x="560" y="380" as="targetPoint" />
            <Array as="points">
              <mxPoint x="440" y="310" />
              <mxPoint x="440" y="530" />
            </Array>
          </mxGeometry>
        </mxCell>
        <mxCell id="zAL7B_6-Cuwp_U3W41ha-53" value="No" style="rounded=0;html=1;jettySize=auto;orthogonalLoop=1;fontSize=11;endArrow=block;endFill=0;endSize=8;strokeWidth=1;shadow=0;labelBackgroundColor=none;edgeStyle=orthogonalEdgeStyle;exitX=0.5;exitY=1;exitDx=0;exitDy=0;entryX=0.5;entryY=0;entryDx=0;entryDy=0;" edge="1" source="zAL7B_6-Cuwp_U3W41ha-51" parent="WIyWlLk6GJQsqaUBKTNV-1" target="WIyWlLk6GJQsqaUBKTNV-11">
          <mxGeometry x="-0.4118" y="-10" relative="1" as="geometry">
            <mxPoint as="offset" />
            <mxPoint x="299.8" y="435" as="sourcePoint" />
            <mxPoint x="300" y="360" as="targetPoint" />
            <Array as="points" />
          </mxGeometry>
        </mxCell>
        <mxCell id="zAL7B_6-Cuwp_U3W41ha-54" value="" style="rounded=0;html=1;jettySize=auto;orthogonalLoop=1;fontSize=11;endArrow=block;endFill=0;endSize=8;strokeWidth=1;shadow=0;labelBackgroundColor=none;edgeStyle=orthogonalEdgeStyle;entryX=0;entryY=0.5;entryDx=0;entryDy=0;exitX=1;exitY=0.5;exitDx=0;exitDy=0;" edge="1" source="zAL7B_6-Cuwp_U3W41ha-55" target="zAL7B_6-Cuwp_U3W41ha-51" parent="WIyWlLk6GJQsqaUBKTNV-1">
          <mxGeometry x="0.3333" y="20" relative="1" as="geometry">
            <mxPoint as="offset" />
            <mxPoint x="299.71000000000004" y="320" as="sourcePoint" />
            <mxPoint x="300" y="350" as="targetPoint" />
          </mxGeometry>
        </mxCell>
        <mxCell id="zAL7B_6-Cuwp_U3W41ha-55" value="Find_inquiry" style="rounded=1;whiteSpace=wrap;html=1;fontSize=12;glass=0;strokeWidth=1;shadow=0;" vertex="1" parent="WIyWlLk6GJQsqaUBKTNV-1">
          <mxGeometry x="160" y="290" width="120" height="40" as="geometry" />
        </mxCell>
        <mxCell id="zAL7B_6-Cuwp_U3W41ha-56" value="error?" style="rhombus;whiteSpace=wrap;html=1;shadow=0;fontFamily=Helvetica;fontSize=12;align=center;strokeWidth=1;spacing=6;spacingTop=-4;" vertex="1" parent="WIyWlLk6GJQsqaUBKTNV-1">
          <mxGeometry x="298.57000000000005" y="750" width="100" height="40" as="geometry" />
        </mxCell>
        <mxCell id="zAL7B_6-Cuwp_U3W41ha-57" value="No" style="rounded=0;html=1;jettySize=auto;orthogonalLoop=1;fontSize=11;endArrow=block;endFill=0;endSize=8;strokeWidth=1;shadow=0;labelBackgroundColor=none;edgeStyle=orthogonalEdgeStyle;exitX=0.5;exitY=1;exitDx=0;exitDy=0;entryX=0.5;entryY=0;entryDx=0;entryDy=0;" edge="1" parent="WIyWlLk6GJQsqaUBKTNV-1" source="zAL7B_6-Cuwp_U3W41ha-56" target="zAL7B_6-Cuwp_U3W41ha-17">
          <mxGeometry x="-0.4118" y="-10" relative="1" as="geometry">
            <mxPoint as="offset" />
            <mxPoint x="359" y="720" as="sourcePoint" />
            <mxPoint x="228.57" y="760" as="targetPoint" />
            <Array as="points" />
          </mxGeometry>
        </mxCell>
        <mxCell id="zAL7B_6-Cuwp_U3W41ha-59" value="error?" style="rhombus;whiteSpace=wrap;html=1;shadow=0;fontFamily=Helvetica;fontSize=12;align=center;strokeWidth=1;spacing=6;spacingTop=-4;" vertex="1" parent="WIyWlLk6GJQsqaUBKTNV-1">
          <mxGeometry x="297.14000000000004" y="850" width="100" height="40" as="geometry" />
        </mxCell>
        <mxCell id="zAL7B_6-Cuwp_U3W41ha-60" value="Yes" style="edgeStyle=orthogonalEdgeStyle;rounded=0;html=1;jettySize=auto;orthogonalLoop=1;fontSize=11;endArrow=block;endFill=0;endSize=8;strokeWidth=1;shadow=0;labelBackgroundColor=none;entryX=0;entryY=0.5;entryDx=0;entryDy=0;exitX=0.946;exitY=0.49;exitDx=0;exitDy=0;exitPerimeter=0;" edge="1" source="zAL7B_6-Cuwp_U3W41ha-59" parent="WIyWlLk6GJQsqaUBKTNV-1" target="zAL7B_6-Cuwp_U3W41ha-5">
          <mxGeometry x="-0.8575" y="10" relative="1" as="geometry">
            <mxPoint as="offset" />
            <mxPoint x="278.57" y="869.71" as="sourcePoint" />
            <mxPoint x="478.57" y="690" as="targetPoint" />
            <Array as="points">
              <mxPoint x="392" y="871" />
              <mxPoint x="395" y="871" />
              <mxPoint x="395" y="870" />
              <mxPoint x="440" y="870" />
              <mxPoint x="440" y="530" />
            </Array>
          </mxGeometry>
        </mxCell>
        <mxCell id="zAL7B_6-Cuwp_U3W41ha-61" value="No" style="rounded=0;html=1;jettySize=auto;orthogonalLoop=1;fontSize=11;endArrow=block;endFill=0;endSize=8;strokeWidth=1;shadow=0;labelBackgroundColor=none;edgeStyle=orthogonalEdgeStyle;exitX=0.5;exitY=1;exitDx=0;exitDy=0;entryX=0.5;entryY=0;entryDx=0;entryDy=0;" edge="1" source="zAL7B_6-Cuwp_U3W41ha-59" parent="WIyWlLk6GJQsqaUBKTNV-1" target="zAL7B_6-Cuwp_U3W41ha-21">
          <mxGeometry x="-0.4118" y="-10" relative="1" as="geometry">
            <mxPoint as="offset" />
            <mxPoint x="357.57" y="820" as="sourcePoint" />
            <mxPoint x="218.57" y="950" as="targetPoint" />
            <Array as="points" />
          </mxGeometry>
        </mxCell>
        <mxCell id="zAL7B_6-Cuwp_U3W41ha-63" value="종료시간?" style="rhombus;whiteSpace=wrap;html=1;shadow=0;fontFamily=Helvetica;fontSize=12;align=center;strokeWidth=1;spacing=6;spacingTop=-4;" vertex="1" parent="WIyWlLk6GJQsqaUBKTNV-1">
          <mxGeometry x="170.00000000000006" y="1020" width="100" height="40" as="geometry" />
        </mxCell>
        <mxCell id="zAL7B_6-Cuwp_U3W41ha-64" value="Yes" style="edgeStyle=orthogonalEdgeStyle;rounded=0;html=1;jettySize=auto;orthogonalLoop=1;fontSize=11;endArrow=block;endFill=0;endSize=8;strokeWidth=1;shadow=0;labelBackgroundColor=none;exitX=0.5;exitY=1;exitDx=0;exitDy=0;entryX=0;entryY=0.5;entryDx=0;entryDy=0;" edge="1" parent="WIyWlLk6GJQsqaUBKTNV-1" source="zAL7B_6-Cuwp_U3W41ha-63" target="zAL7B_6-Cuwp_U3W41ha-37">
          <mxGeometry y="10" relative="1" as="geometry">
            <mxPoint as="offset" />
            <mxPoint x="230" y="1000" as="sourcePoint" />
            <mxPoint x="230" y="1030" as="targetPoint" />
            <Array as="points">
              <mxPoint x="220" y="1080" />
            </Array>
          </mxGeometry>
        </mxCell>
        <mxCell id="zAL7B_6-Cuwp_U3W41ha-65" value="No" style="edgeStyle=orthogonalEdgeStyle;rounded=0;html=1;jettySize=auto;orthogonalLoop=1;fontSize=11;endArrow=block;endFill=0;endSize=8;strokeWidth=1;shadow=0;labelBackgroundColor=none;exitX=0;exitY=0.5;exitDx=0;exitDy=0;entryX=0;entryY=0.5;entryDx=0;entryDy=0;" edge="1" parent="WIyWlLk6GJQsqaUBKTNV-1" source="zAL7B_6-Cuwp_U3W41ha-63" target="zAL7B_6-Cuwp_U3W41ha-6">
          <mxGeometry x="-0.7407" y="-10" relative="1" as="geometry">
            <mxPoint as="offset" />
            <mxPoint x="230" y="1070" as="sourcePoint" />
            <mxPoint x="385" y="1090" as="targetPoint" />
            <Array as="points">
              <mxPoint x="110" y="1040" />
              <mxPoint x="110" y="610" />
            </Array>
          </mxGeometry>
        </mxCell>
      </root>
    </mxGraphModel>
  </diagram>
</mxfile>
